<?xml version="1.0" encoding="utf-8"?>
<!-- Generator: Adobe Illustrator 16.0.0, SVG Export Plug-In . SVG Version: 6.00 Build 0)  -->
<!DOCTYPE svg PUBLIC "-//W3C//DTD SVG 1.1//EN" "http://www.w3.org/Graphics/SVG/1.1/DTD/svg11.dtd">
<svg version="1.1" xmlns="http://www.w3.org/2000/svg" xmlns:xlink="http://www.w3.org/1999/xlink" x="0px" y="0px" width="176px"
	 height="16px" viewBox="0 0 176 16" enable-background="new 0 0 176 16" xml:space="preserve">
<g id="Calque_1">
	<path display="none" fill="none" d="M12,8c0,2.209-1.791,4-4,4s-4-1.791-4-4S2.209,4,0,4s-4,1.791-4,4"/>
	<path display="none" fill="none" stroke="#000000" stroke-width="3" stroke-miterlimit="10" d="M188,8c0,2.209-1.791,4-4,4
		s-4-1.791-4-4s-1.791-4-4-4s-4,1.791-4,4s-1.791,4-4,4s-4-1.791-4-4s-1.791-4-4-4s-4,1.791-4,4s-1.791,4-4,4s-4-1.791-4-4
		s-1.791-4-4-4s-4,1.791-4,4s-1.791,4-4,4s-4-1.791-4-4s-1.791-4-4-4s-4,1.791-4,4s-1.791,4-4,4s-4-1.791-4-4s-1.791-4-4-4
		s-4,1.791-4,4s-1.791,4-4,4s-4-1.791-4-4s-1.791-4-4-4s-4,1.791-4,4s-1.791,4-4,4s-4-1.791-4-4s-1.791-4-4-4s-4,1.791-4,4
		s-1.791,4-4,4s-4-1.791-4-4s-1.791-4-4-4s-4,1.791-4,4s-1.791,4-4,4s-4-1.791-4-4s-1.791-4-4-4s-4,1.791-4,4s-1.791,4-4,4
		s-4-1.791-4-4s-1.791-4-4-4s-4,1.791-4,4s-1.791,4-4,4s-4-1.791-4-4s-1.791-4-4-4s-4,1.791-4,4s-1.791,4-4,4s-4-1.791-4-4
		S2.209,4,0,4s-4,1.791-4,4"/>
	<path fill="none" stroke="#666666" stroke-miterlimit="10" d="M190,8c0,1.104-0.896,2-2,2s-2-0.896-2-2s-0.896-2-2-2s-2,0.896-2,2
		s-0.896,2-2,2s-2-0.896-2-2s-0.896-2-2-2s-2,0.896-2,2s-0.896,2-2,2s-2-0.896-2-2s-0.896-2-2-2s-2,0.896-2,2s-0.896,2-2,2
		s-2-0.896-2-2s-0.896-2-2-2s-2,0.896-2,2s-0.896,2-2,2s-2-0.896-2-2s-0.896-2-2-2s-2,0.896-2,2s-0.896,2-2,2s-2-0.896-2-2
		s-0.896-2-2-2s-2,0.896-2,2s-0.896,2-2,2s-2-0.896-2-2s-0.896-2-2-2s-2,0.896-2,2s-0.896,2-2,2s-2-0.896-2-2s-0.896-2-2-2
		s-2,0.896-2,2s-0.896,2-2,2s-2-0.896-2-2s-0.896-2-2-2s-2,0.896-2,2s-0.896,2-2,2s-2-0.896-2-2s-0.896-2-2-2s-2,0.896-2,2
		s-0.896,2-2,2s-2-0.896-2-2s-0.896-2-2-2s-2,0.896-2,2s-0.896,2-2,2s-2-0.896-2-2s-0.896-2-2-2s-2,0.896-2,2s-0.896,2-2,2
		s-2-0.896-2-2s-0.896-2-2-2s-2,0.896-2,2s-0.896,2-2,2s-2-0.896-2-2s-0.896-2-2-2s-2,0.896-2,2s-0.896,2-2,2s-2-0.896-2-2
		s-0.896-2-2-2s-2,0.896-2,2s-0.896,2-2,2s-2-0.896-2-2s-0.896-2-2-2s-2,0.896-2,2s-0.896,2-2,2s-2-0.896-2-2s-0.896-2-2-2
		s-2,0.896-2,2s-0.896,2-2,2s-2-0.896-2-2s-0.896-2-2-2s-2,0.896-2,2s-0.896,2-2,2s-2-0.896-2-2s-0.896-2-2-2s-2,0.896-2,2
		s-0.896,2-2,2s-2-0.896-2-2s-0.896-2-2-2s-2,0.896-2,2s-0.896,2-2,2s-2-0.896-2-2s-0.896-2-2-2s-2,0.896-2,2s-0.896,2-2,2
		s-2-0.896-2-2s-0.896-2-2-2s-2,0.896-2,2s-0.896,2-2,2s-2-0.896-2-2S9.104,6,8,6S6,6.896,6,8s-0.896,2-2,2S2,9.104,2,8S1.104,6,0,6
		s-2,0.896-2,2"/>
</g>
<g id="Calque_2">
</g>
</svg>
